<mxfile host="app.diagrams.net" modified="2023-05-22T09:55:50.125Z" agent="Mozilla/5.0 (Windows NT 10.0; Win64; x64) AppleWebKit/537.36 (KHTML, like Gecko) Chrome/113.0.0.0 Safari/537.36" etag="8zycn29rDOjDHtYiX8_G" version="21.3.2" type="github">
  <diagram name="Page-1" id="zbFRj_U5I6u-hDkHQQfI">
    <mxGraphModel dx="3120" dy="1824" grid="1" gridSize="10" guides="1" tooltips="1" connect="1" arrows="1" fold="1" page="1" pageScale="1" pageWidth="850" pageHeight="1100" math="0" shadow="0">
      <root>
        <mxCell id="0" />
        <mxCell id="1" parent="0" />
        <mxCell id="KjNn7EMUg0Ba7doTPHg2-1" value="" style="rounded=0;whiteSpace=wrap;html=1;fillColor=#ffe6cc;strokeColor=#d79b00;" vertex="1" parent="1">
          <mxGeometry x="140" y="720" width="1300" height="120" as="geometry" />
        </mxCell>
        <mxCell id="KjNn7EMUg0Ba7doTPHg2-2" value="" style="rounded=0;whiteSpace=wrap;html=1;" vertex="1" parent="1">
          <mxGeometry x="139" y="840" width="1300" height="120" as="geometry" />
        </mxCell>
        <mxCell id="KjNn7EMUg0Ba7doTPHg2-3" value="" style="rounded=0;whiteSpace=wrap;html=1;fillColor=#f5f5f5;fontColor=#333333;strokeColor=#666666;" vertex="1" parent="1">
          <mxGeometry x="140" y="600" width="1300" height="120" as="geometry" />
        </mxCell>
        <mxCell id="KjNn7EMUg0Ba7doTPHg2-4" value="" style="rounded=0;whiteSpace=wrap;html=1;fillColor=#d5e8d4;strokeColor=#82b366;" vertex="1" parent="1">
          <mxGeometry x="140" y="360" width="1300" height="120" as="geometry" />
        </mxCell>
        <mxCell id="KjNn7EMUg0Ba7doTPHg2-5" value="" style="rounded=0;whiteSpace=wrap;html=1;fillColor=#f8cecc;strokeColor=#b85450;" vertex="1" parent="1">
          <mxGeometry x="140" y="240" width="1300" height="120" as="geometry" />
        </mxCell>
        <mxCell id="KjNn7EMUg0Ba7doTPHg2-6" value="" style="rounded=0;whiteSpace=wrap;html=1;fillColor=#dae8fc;strokeColor=#6c8ebf;" vertex="1" parent="1">
          <mxGeometry x="140" y="119" width="1300" height="120" as="geometry" />
        </mxCell>
        <mxCell id="KjNn7EMUg0Ba7doTPHg2-7" value="Discover" style="html=1;shadow=0;dashed=0;align=center;verticalAlign=middle;shape=mxgraph.arrows2.arrow;dy=0;dx=10;notch=0;fillColor=#fa6800;fontColor=#000000;strokeColor=#C73500;" vertex="1" parent="1">
          <mxGeometry x="160" y="79" width="200" height="30" as="geometry" />
        </mxCell>
        <mxCell id="KjNn7EMUg0Ba7doTPHg2-8" value="Prepare" style="html=1;shadow=0;dashed=0;align=center;verticalAlign=middle;shape=mxgraph.arrows2.arrow;dy=0;dx=10;notch=10;fillColor=#d80073;fontColor=#ffffff;strokeColor=#A50040;" vertex="1" parent="1">
          <mxGeometry x="360" y="79" width="240" height="30" as="geometry" />
        </mxCell>
        <mxCell id="KjNn7EMUg0Ba7doTPHg2-9" value="Explore" style="html=1;shadow=0;dashed=0;align=center;verticalAlign=middle;shape=mxgraph.arrows2.arrow;dy=0;dx=10;notch=10;fillColor=#60a917;fontColor=#ffffff;strokeColor=#2D7600;" vertex="1" parent="1">
          <mxGeometry x="600" y="79" width="160" height="30" as="geometry" />
        </mxCell>
        <mxCell id="KjNn7EMUg0Ba7doTPHg2-10" value="V1 Realize" style="html=1;shadow=0;dashed=0;align=center;verticalAlign=middle;shape=mxgraph.arrows2.arrow;dy=0;dx=10;notch=10;fillColor=#1ba1e2;fontColor=#ffffff;strokeColor=#006EAF;" vertex="1" parent="1">
          <mxGeometry x="760" y="79" width="160" height="30" as="geometry" />
        </mxCell>
        <mxCell id="KjNn7EMUg0Ba7doTPHg2-11" value="Run" style="html=1;shadow=0;dashed=0;align=center;verticalAlign=middle;shape=mxgraph.arrows2.arrow;dy=0;dx=10;notch=10;fillColor=#e51400;fontColor=#ffffff;strokeColor=#B20000;" vertex="1" parent="1">
          <mxGeometry x="1360" y="76" width="80" height="30" as="geometry" />
        </mxCell>
        <mxCell id="KjNn7EMUg0Ba7doTPHg2-12" value="G1" style="rhombus;whiteSpace=wrap;html=1;fillColor=#f0a30a;strokeColor=#BD7000;fontColor=#000000;" vertex="1" parent="1">
          <mxGeometry x="580" y="50" width="30" height="30" as="geometry" />
        </mxCell>
        <mxCell id="KjNn7EMUg0Ba7doTPHg2-13" value="G2" style="rhombus;whiteSpace=wrap;html=1;fillColor=#f0a30a;strokeColor=#BD7000;fontColor=#000000;" vertex="1" parent="1">
          <mxGeometry x="740" y="50" width="30" height="30" as="geometry" />
        </mxCell>
        <mxCell id="KjNn7EMUg0Ba7doTPHg2-14" value="G3" style="rhombus;whiteSpace=wrap;html=1;fillColor=#f0a30a;strokeColor=#BD7000;fontColor=#000000;" vertex="1" parent="1">
          <mxGeometry x="900" y="50" width="30" height="30" as="geometry" />
        </mxCell>
        <mxCell id="KjNn7EMUg0Ba7doTPHg2-15" value="G4" style="rhombus;whiteSpace=wrap;html=1;fillColor=#f0a30a;strokeColor=#BD7000;fontColor=#000000;" vertex="1" parent="1">
          <mxGeometry x="1100" y="50" width="30" height="30" as="geometry" />
        </mxCell>
        <mxCell id="KjNn7EMUg0Ba7doTPHg2-16" value="Product Roadmap" style="rounded=1;whiteSpace=wrap;html=1;fillColor=#f5f5f5;strokeColor=#666666;fontColor=#333333;" vertex="1" parent="1">
          <mxGeometry x="240" y="334" width="100" height="20" as="geometry" />
        </mxCell>
        <mxCell id="KjNn7EMUg0Ba7doTPHg2-17" value="Application Value" style="rounded=1;whiteSpace=wrap;html=1;fillColor=#f5f5f5;strokeColor=#666666;fontColor=#333333;" vertex="1" parent="1">
          <mxGeometry x="160" y="249" width="120" height="20" as="geometry" />
        </mxCell>
        <mxCell id="KjNn7EMUg0Ba7doTPHg2-18" value="Solution Scoping" style="rounded=1;whiteSpace=wrap;html=1;fillColor=#f5f5f5;strokeColor=#666666;fontColor=#333333;" vertex="1" parent="1">
          <mxGeometry x="200" y="279" width="120" height="20" as="geometry" />
        </mxCell>
        <mxCell id="KjNn7EMUg0Ba7doTPHg2-19" value="Solution Proposal" style="rounded=1;whiteSpace=wrap;html=1;fillColor=#f5f5f5;strokeColor=#666666;fontColor=#333333;" vertex="1" parent="1">
          <mxGeometry x="240" y="307" width="100" height="21" as="geometry" />
        </mxCell>
        <mxCell id="KjNn7EMUg0Ba7doTPHg2-20" value="Mar" style="rounded=0;whiteSpace=wrap;html=1;fillColor=#f5f5f5;gradientColor=#b3b3b3;strokeColor=#666666;fontStyle=1" vertex="1" parent="1">
          <mxGeometry x="160" width="200" height="30" as="geometry" />
        </mxCell>
        <mxCell id="KjNn7EMUg0Ba7doTPHg2-21" value="Apr" style="rounded=0;whiteSpace=wrap;html=1;fillColor=#f5f5f5;gradientColor=#b3b3b3;strokeColor=#666666;fontStyle=1" vertex="1" parent="1">
          <mxGeometry x="360" width="200" height="30" as="geometry" />
        </mxCell>
        <mxCell id="KjNn7EMUg0Ba7doTPHg2-22" value="May" style="rounded=0;whiteSpace=wrap;html=1;fillColor=#f5f5f5;gradientColor=#b3b3b3;strokeColor=#666666;fontStyle=1" vertex="1" parent="1">
          <mxGeometry x="560" width="200" height="30" as="geometry" />
        </mxCell>
        <mxCell id="KjNn7EMUg0Ba7doTPHg2-23" value="Technical Requirements" style="rounded=1;whiteSpace=wrap;html=1;fillColor=#f5f5f5;strokeColor=#666666;fontColor=#333333;" vertex="1" parent="1">
          <mxGeometry x="378" y="370" width="140" height="20" as="geometry" />
        </mxCell>
        <mxCell id="KjNn7EMUg0Ba7doTPHg2-24" value="Vendor Selection" style="rounded=1;whiteSpace=wrap;html=1;fillColor=#f5f5f5;strokeColor=#666666;fontColor=#333333;" vertex="1" parent="1">
          <mxGeometry x="380" y="650" width="210" height="20" as="geometry" />
        </mxCell>
        <mxCell id="KjNn7EMUg0Ba7doTPHg2-25" value="On Board Project Team" style="rounded=1;whiteSpace=wrap;html=1;fillColor=#f5f5f5;strokeColor=#666666;fontColor=#333333;" vertex="1" parent="1">
          <mxGeometry x="460" y="209" width="140" height="20" as="geometry" />
        </mxCell>
        <mxCell id="KjNn7EMUg0Ba7doTPHg2-26" value="Project Plan" style="rounded=1;whiteSpace=wrap;html=1;fillColor=#f5f5f5;strokeColor=#666666;fontColor=#333333;" vertex="1" parent="1">
          <mxGeometry x="360" y="129" width="120" height="20" as="geometry" />
        </mxCell>
        <mxCell id="KjNn7EMUg0Ba7doTPHg2-27" value="Project Team Enablement" style="rounded=1;whiteSpace=wrap;html=1;fillColor=#f5f5f5;strokeColor=#666666;fontColor=#333333;" vertex="1" parent="1">
          <mxGeometry x="518" y="170" width="80" height="30" as="geometry" />
        </mxCell>
        <mxCell id="KjNn7EMUg0Ba7doTPHg2-28" value="Jun" style="rounded=0;whiteSpace=wrap;html=1;fillColor=#f5f5f5;gradientColor=#b3b3b3;strokeColor=#666666;fontStyle=1" vertex="1" parent="1">
          <mxGeometry x="760" width="200" height="30" as="geometry" />
        </mxCell>
        <mxCell id="KjNn7EMUg0Ba7doTPHg2-29" value="Solution Validation" style="rounded=1;whiteSpace=wrap;html=1;fillColor=#f5f5f5;strokeColor=#666666;fontColor=#333333;" vertex="1" parent="1">
          <mxGeometry x="598" y="370" width="110" height="20" as="geometry" />
        </mxCell>
        <mxCell id="KjNn7EMUg0Ba7doTPHg2-30" value="Solution Design" style="rounded=1;whiteSpace=wrap;html=1;fillColor=#f5f5f5;strokeColor=#666666;fontColor=#333333;" vertex="1" parent="1">
          <mxGeometry x="661" y="851" width="90" height="20" as="geometry" />
        </mxCell>
        <mxCell id="KjNn7EMUg0Ba7doTPHg2-31" value="Detailed Design" style="rounded=1;whiteSpace=wrap;html=1;fillColor=#f5f5f5;strokeColor=#666666;fontColor=#333333;" vertex="1" parent="1">
          <mxGeometry x="661" y="904" width="90" height="20" as="geometry" />
        </mxCell>
        <mxCell id="KjNn7EMUg0Ba7doTPHg2-32" value="Functional Design" style="rounded=1;whiteSpace=wrap;html=1;fillColor=#f5f5f5;strokeColor=#666666;fontColor=#333333;" vertex="1" parent="1">
          <mxGeometry x="651" y="878" width="100" height="20" as="geometry" />
        </mxCell>
        <mxCell id="KjNn7EMUg0Ba7doTPHg2-33" value="Build Plan" style="rounded=1;whiteSpace=wrap;html=1;fillColor=#f5f5f5;strokeColor=#666666;fontColor=#333333;" vertex="1" parent="1">
          <mxGeometry x="600" y="129" width="60" height="20" as="geometry" />
        </mxCell>
        <mxCell id="KjNn7EMUg0Ba7doTPHg2-34" value="Release Plan" style="rounded=1;whiteSpace=wrap;html=1;fillColor=#f5f5f5;strokeColor=#666666;fontColor=#333333;" vertex="1" parent="1">
          <mxGeometry x="660" y="159" width="80" height="20" as="geometry" />
        </mxCell>
        <mxCell id="KjNn7EMUg0Ba7doTPHg2-35" style="edgeStyle=orthogonalEdgeStyle;rounded=0;orthogonalLoop=1;jettySize=auto;html=1;exitX=0.5;exitY=1;exitDx=0;exitDy=0;" edge="1" parent="1" source="KjNn7EMUg0Ba7doTPHg2-31" target="KjNn7EMUg0Ba7doTPHg2-31">
          <mxGeometry relative="1" as="geometry" />
        </mxCell>
        <mxCell id="KjNn7EMUg0Ba7doTPHg2-36" value="Technical Solution Design" style="rounded=1;whiteSpace=wrap;html=1;fillColor=#f5f5f5;strokeColor=#666666;fontColor=#333333;" vertex="1" parent="1">
          <mxGeometry x="609" y="930" width="142" height="20" as="geometry" />
        </mxCell>
        <mxCell id="KjNn7EMUg0Ba7doTPHg2-37" style="edgeStyle=orthogonalEdgeStyle;rounded=0;orthogonalLoop=1;jettySize=auto;html=1;exitX=0.5;exitY=1;exitDx=0;exitDy=0;" edge="1" parent="1" source="KjNn7EMUg0Ba7doTPHg2-16" target="KjNn7EMUg0Ba7doTPHg2-16">
          <mxGeometry relative="1" as="geometry" />
        </mxCell>
        <mxCell id="KjNn7EMUg0Ba7doTPHg2-38" value="V1 Build" style="rounded=1;whiteSpace=wrap;html=1;fillColor=#f5f5f5;strokeColor=#666666;fontColor=#333333;" vertex="1" parent="1">
          <mxGeometry x="759" y="850" width="120" height="20" as="geometry" />
        </mxCell>
        <mxCell id="KjNn7EMUg0Ba7doTPHg2-39" value="V1 UAT" style="rounded=1;whiteSpace=wrap;html=1;fillColor=#f5f5f5;strokeColor=#666666;fontColor=#333333;" vertex="1" parent="1">
          <mxGeometry x="880" y="152" width="40" height="300" as="geometry" />
        </mxCell>
        <mxCell id="KjNn7EMUg0Ba7doTPHg2-40" value="Jul" style="rounded=0;whiteSpace=wrap;html=1;fillColor=#f5f5f5;gradientColor=#b3b3b3;strokeColor=#666666;fontStyle=1" vertex="1" parent="1">
          <mxGeometry x="960" width="200" height="30" as="geometry" />
        </mxCell>
        <mxCell id="KjNn7EMUg0Ba7doTPHg2-41" value="V2 Realize" style="html=1;shadow=0;dashed=0;align=center;verticalAlign=middle;shape=mxgraph.arrows2.arrow;dy=0;dx=10;notch=10;fillColor=#1ba1e2;fontColor=#ffffff;strokeColor=#006EAF;" vertex="1" parent="1">
          <mxGeometry x="960" y="79" width="160" height="30" as="geometry" />
        </mxCell>
        <mxCell id="KjNn7EMUg0Ba7doTPHg2-42" value="V3 Realize" style="html=1;shadow=0;dashed=0;align=center;verticalAlign=middle;shape=mxgraph.arrows2.arrow;dy=0;dx=10;notch=10;fillColor=#1ba1e2;fontColor=#ffffff;strokeColor=#006EAF;" vertex="1" parent="1">
          <mxGeometry x="1160" y="78" width="160" height="30" as="geometry" />
        </mxCell>
        <mxCell id="KjNn7EMUg0Ba7doTPHg2-43" value="Aug" style="rounded=0;whiteSpace=wrap;html=1;fillColor=#f5f5f5;gradientColor=#b3b3b3;strokeColor=#666666;fontStyle=1" vertex="1" parent="1">
          <mxGeometry x="1160" width="200" height="30" as="geometry" />
        </mxCell>
        <mxCell id="KjNn7EMUg0Ba7doTPHg2-44" value="V2 Build" style="rounded=1;whiteSpace=wrap;html=1;fillColor=#f5f5f5;strokeColor=#666666;fontColor=#333333;" vertex="1" parent="1">
          <mxGeometry x="959" y="847" width="120" height="20" as="geometry" />
        </mxCell>
        <mxCell id="KjNn7EMUg0Ba7doTPHg2-45" value="V2 UAT" style="rounded=1;whiteSpace=wrap;html=1;fillColor=#f5f5f5;strokeColor=#666666;fontColor=#333333;" vertex="1" parent="1">
          <mxGeometry x="1080" y="150" width="40" height="300" as="geometry" />
        </mxCell>
        <mxCell id="KjNn7EMUg0Ba7doTPHg2-46" value="Deploy" style="html=1;shadow=0;dashed=0;align=center;verticalAlign=middle;shape=mxgraph.arrows2.arrow;dy=0;dx=10;notch=10;fillColor=#e3c800;fontColor=#000000;strokeColor=#B09500;" vertex="1" parent="1">
          <mxGeometry x="1120" y="78" width="40" height="30" as="geometry" />
        </mxCell>
        <mxCell id="KjNn7EMUg0Ba7doTPHg2-47" value="Deploy" style="html=1;shadow=0;dashed=0;align=center;verticalAlign=middle;shape=mxgraph.arrows2.arrow;dy=0;dx=10;notch=10;fillColor=#e3c800;fontColor=#000000;strokeColor=#B09500;" vertex="1" parent="1">
          <mxGeometry x="1320" y="76" width="40" height="30" as="geometry" />
        </mxCell>
        <mxCell id="KjNn7EMUg0Ba7doTPHg2-48" value="V3 Build" style="rounded=1;whiteSpace=wrap;html=1;fillColor=#f5f5f5;strokeColor=#666666;fontColor=#333333;" vertex="1" parent="1">
          <mxGeometry x="1159" y="845" width="120" height="20" as="geometry" />
        </mxCell>
        <mxCell id="KjNn7EMUg0Ba7doTPHg2-49" value="V3 UAT" style="rounded=1;whiteSpace=wrap;html=1;fillColor=#f5f5f5;strokeColor=#666666;fontColor=#333333;" vertex="1" parent="1">
          <mxGeometry x="1280" y="149" width="40" height="300" as="geometry" />
        </mxCell>
        <mxCell id="KjNn7EMUg0Ba7doTPHg2-50" value="Deploy" style="html=1;shadow=0;dashed=0;align=center;verticalAlign=middle;shape=mxgraph.arrows2.arrow;dy=0;dx=10;notch=10;fillColor=#e3c800;fontColor=#000000;strokeColor=#B09500;" vertex="1" parent="1">
          <mxGeometry x="920" y="79" width="40" height="30" as="geometry" />
        </mxCell>
        <mxCell id="KjNn7EMUg0Ba7doTPHg2-51" value="G5" style="rhombus;whiteSpace=wrap;html=1;fillColor=#f0a30a;strokeColor=#BD7000;fontColor=#000000;" vertex="1" parent="1">
          <mxGeometry x="1300" y="50" width="30" height="30" as="geometry" />
        </mxCell>
        <mxCell id="KjNn7EMUg0Ba7doTPHg2-52" value="" style="endArrow=none;html=1;rounded=0;strokeColor=#FF0000;" edge="1" parent="1" source="KjNn7EMUg0Ba7doTPHg2-61">
          <mxGeometry width="50" height="50" relative="1" as="geometry">
            <mxPoint x="494" y="480" as="sourcePoint" />
            <mxPoint x="494.3299999999999" y="31" as="targetPoint" />
          </mxGeometry>
        </mxCell>
        <mxCell id="KjNn7EMUg0Ba7doTPHg2-53" value="1" style="rounded=0;whiteSpace=wrap;html=1;fillColor=#cce5ff;strokeColor=#36393d;fontStyle=1;" vertex="1" parent="1">
          <mxGeometry x="160" y="30" width="40" height="20" as="geometry" />
        </mxCell>
        <mxCell id="KjNn7EMUg0Ba7doTPHg2-54" value="6" style="rounded=0;whiteSpace=wrap;html=1;fillColor=#cce5ff;strokeColor=#36393d;fontStyle=1;" vertex="1" parent="1">
          <mxGeometry x="200" y="30" width="40" height="20" as="geometry" />
        </mxCell>
        <mxCell id="KjNn7EMUg0Ba7doTPHg2-55" value="13" style="rounded=0;whiteSpace=wrap;html=1;fillColor=#cce5ff;strokeColor=#36393d;fontStyle=1;" vertex="1" parent="1">
          <mxGeometry x="240" y="30" width="40" height="20" as="geometry" />
        </mxCell>
        <mxCell id="KjNn7EMUg0Ba7doTPHg2-56" value="20" style="rounded=0;whiteSpace=wrap;html=1;fillColor=#cce5ff;strokeColor=#36393d;fontStyle=1;" vertex="1" parent="1">
          <mxGeometry x="280" y="30" width="40" height="20" as="geometry" />
        </mxCell>
        <mxCell id="KjNn7EMUg0Ba7doTPHg2-57" value="27" style="rounded=0;whiteSpace=wrap;html=1;fillColor=#cce5ff;strokeColor=#36393d;fontStyle=1;" vertex="1" parent="1">
          <mxGeometry x="320" y="30" width="40" height="20" as="geometry" />
        </mxCell>
        <mxCell id="KjNn7EMUg0Ba7doTPHg2-58" value="3" style="rounded=0;whiteSpace=wrap;html=1;fillColor=#cce5ff;strokeColor=#36393d;fontStyle=1;" vertex="1" parent="1">
          <mxGeometry x="360" y="30" width="40" height="20" as="geometry" />
        </mxCell>
        <mxCell id="KjNn7EMUg0Ba7doTPHg2-59" value="10" style="rounded=0;whiteSpace=wrap;html=1;fillColor=#cce5ff;strokeColor=#36393d;fontStyle=1;" vertex="1" parent="1">
          <mxGeometry x="400" y="30" width="40" height="20" as="geometry" />
        </mxCell>
        <mxCell id="KjNn7EMUg0Ba7doTPHg2-60" value="17" style="rounded=0;whiteSpace=wrap;html=1;fillColor=#cce5ff;strokeColor=#36393d;fontStyle=1;" vertex="1" parent="1">
          <mxGeometry x="440" y="30" width="40" height="20" as="geometry" />
        </mxCell>
        <mxCell id="KjNn7EMUg0Ba7doTPHg2-61" value="24" style="rounded=0;whiteSpace=wrap;html=1;fillColor=#cce5ff;strokeColor=#36393d;fontStyle=1;" vertex="1" parent="1">
          <mxGeometry x="480" y="30" width="40" height="20" as="geometry" />
        </mxCell>
        <mxCell id="KjNn7EMUg0Ba7doTPHg2-62" value="30" style="rounded=0;whiteSpace=wrap;html=1;fillColor=#cce5ff;strokeColor=#36393d;fontStyle=1;" vertex="1" parent="1">
          <mxGeometry x="520" y="30" width="40" height="20" as="geometry" />
        </mxCell>
        <mxCell id="KjNn7EMUg0Ba7doTPHg2-63" value="1" style="rounded=0;whiteSpace=wrap;html=1;fillColor=#cce5ff;strokeColor=#36393d;fontStyle=1;" vertex="1" parent="1">
          <mxGeometry x="560" y="30" width="40" height="20" as="geometry" />
        </mxCell>
        <mxCell id="KjNn7EMUg0Ba7doTPHg2-64" value="8" style="rounded=0;whiteSpace=wrap;html=1;fillColor=#cce5ff;strokeColor=#36393d;fontStyle=1;" vertex="1" parent="1">
          <mxGeometry x="600" y="30" width="40" height="20" as="geometry" />
        </mxCell>
        <mxCell id="KjNn7EMUg0Ba7doTPHg2-65" value="15" style="rounded=0;whiteSpace=wrap;html=1;fillColor=#cce5ff;strokeColor=#36393d;fontStyle=1;" vertex="1" parent="1">
          <mxGeometry x="640" y="30" width="40" height="20" as="geometry" />
        </mxCell>
        <mxCell id="KjNn7EMUg0Ba7doTPHg2-66" value="22" style="rounded=0;whiteSpace=wrap;html=1;fillColor=#cce5ff;strokeColor=#36393d;fontStyle=1;" vertex="1" parent="1">
          <mxGeometry x="680" y="30" width="40" height="20" as="geometry" />
        </mxCell>
        <mxCell id="KjNn7EMUg0Ba7doTPHg2-67" value="29" style="rounded=0;whiteSpace=wrap;html=1;fillColor=#cce5ff;strokeColor=#36393d;fontStyle=1;" vertex="1" parent="1">
          <mxGeometry x="720" y="30" width="40" height="20" as="geometry" />
        </mxCell>
        <mxCell id="KjNn7EMUg0Ba7doTPHg2-68" value="1" style="rounded=0;whiteSpace=wrap;html=1;fillColor=#cce5ff;strokeColor=#36393d;fontStyle=1;" vertex="1" parent="1">
          <mxGeometry x="760" y="30" width="40" height="20" as="geometry" />
        </mxCell>
        <mxCell id="KjNn7EMUg0Ba7doTPHg2-69" value="5" style="rounded=0;whiteSpace=wrap;html=1;fillColor=#cce5ff;strokeColor=#36393d;fontStyle=1;" vertex="1" parent="1">
          <mxGeometry x="800" y="30" width="40" height="20" as="geometry" />
        </mxCell>
        <mxCell id="KjNn7EMUg0Ba7doTPHg2-70" value="12" style="rounded=0;whiteSpace=wrap;html=1;fillColor=#cce5ff;strokeColor=#36393d;fontStyle=1;" vertex="1" parent="1">
          <mxGeometry x="840" y="30" width="40" height="20" as="geometry" />
        </mxCell>
        <mxCell id="KjNn7EMUg0Ba7doTPHg2-71" value="19" style="rounded=0;whiteSpace=wrap;html=1;fillColor=#cce5ff;strokeColor=#36393d;fontStyle=1;" vertex="1" parent="1">
          <mxGeometry x="880" y="30" width="40" height="20" as="geometry" />
        </mxCell>
        <mxCell id="KjNn7EMUg0Ba7doTPHg2-72" value="26" style="rounded=0;whiteSpace=wrap;html=1;fillColor=#cce5ff;strokeColor=#36393d;fontStyle=1;" vertex="1" parent="1">
          <mxGeometry x="920" y="30" width="40" height="20" as="geometry" />
        </mxCell>
        <mxCell id="KjNn7EMUg0Ba7doTPHg2-73" value="3" style="rounded=0;whiteSpace=wrap;html=1;fillColor=#cce5ff;strokeColor=#36393d;fontStyle=1;" vertex="1" parent="1">
          <mxGeometry x="960" y="30" width="40" height="20" as="geometry" />
        </mxCell>
        <mxCell id="KjNn7EMUg0Ba7doTPHg2-74" value="10" style="rounded=0;whiteSpace=wrap;html=1;fillColor=#cce5ff;strokeColor=#36393d;fontStyle=1;" vertex="1" parent="1">
          <mxGeometry x="1000" y="30" width="40" height="20" as="geometry" />
        </mxCell>
        <mxCell id="KjNn7EMUg0Ba7doTPHg2-75" value="17" style="rounded=0;whiteSpace=wrap;html=1;fillColor=#cce5ff;strokeColor=#36393d;fontStyle=1;" vertex="1" parent="1">
          <mxGeometry x="1040" y="30" width="40" height="20" as="geometry" />
        </mxCell>
        <mxCell id="KjNn7EMUg0Ba7doTPHg2-76" value="24" style="rounded=0;whiteSpace=wrap;html=1;fillColor=#cce5ff;strokeColor=#36393d;fontStyle=1;" vertex="1" parent="1">
          <mxGeometry x="1080" y="30" width="40" height="20" as="geometry" />
        </mxCell>
        <mxCell id="KjNn7EMUg0Ba7doTPHg2-77" value="31" style="rounded=0;whiteSpace=wrap;html=1;fillColor=#cce5ff;strokeColor=#36393d;fontStyle=1;" vertex="1" parent="1">
          <mxGeometry x="1120" y="30" width="40" height="20" as="geometry" />
        </mxCell>
        <mxCell id="KjNn7EMUg0Ba7doTPHg2-78" value="1" style="rounded=0;whiteSpace=wrap;html=1;fillColor=#cce5ff;strokeColor=#36393d;fontStyle=1;" vertex="1" parent="1">
          <mxGeometry x="1160" y="30" width="40" height="20" as="geometry" />
        </mxCell>
        <mxCell id="KjNn7EMUg0Ba7doTPHg2-79" value="7" style="rounded=0;whiteSpace=wrap;html=1;fillColor=#cce5ff;strokeColor=#36393d;fontStyle=1;" vertex="1" parent="1">
          <mxGeometry x="1200" y="30" width="40" height="20" as="geometry" />
        </mxCell>
        <mxCell id="KjNn7EMUg0Ba7doTPHg2-80" value="14" style="rounded=0;whiteSpace=wrap;html=1;fillColor=#cce5ff;strokeColor=#36393d;fontStyle=1;" vertex="1" parent="1">
          <mxGeometry x="1240" y="30" width="40" height="20" as="geometry" />
        </mxCell>
        <mxCell id="KjNn7EMUg0Ba7doTPHg2-81" value="21" style="rounded=0;whiteSpace=wrap;html=1;fillColor=#cce5ff;strokeColor=#36393d;fontStyle=1;" vertex="1" parent="1">
          <mxGeometry x="1280" y="30" width="40" height="20" as="geometry" />
        </mxCell>
        <mxCell id="KjNn7EMUg0Ba7doTPHg2-82" value="28" style="rounded=0;whiteSpace=wrap;html=1;fillColor=#cce5ff;strokeColor=#36393d;fontStyle=1;" vertex="1" parent="1">
          <mxGeometry x="1320" y="30" width="40" height="20" as="geometry" />
        </mxCell>
        <mxCell id="KjNn7EMUg0Ba7doTPHg2-83" value="PMO" style="rounded=1;whiteSpace=wrap;html=1;rotation=-90;fillColor=#dae8fc;strokeColor=#6c8ebf;gradientColor=#7ea6e0;" vertex="1" parent="1">
          <mxGeometry x="60" y="159" width="120" height="40" as="geometry" />
        </mxCell>
        <mxCell id="KjNn7EMUg0Ba7doTPHg2-84" value="Digital Product" style="rounded=1;whiteSpace=wrap;html=1;rotation=-90;fillColor=#f8cecc;strokeColor=#b85450;gradientColor=#ea6b66;" vertex="1" parent="1">
          <mxGeometry x="60" y="279" width="120" height="40" as="geometry" />
        </mxCell>
        <mxCell id="KjNn7EMUg0Ba7doTPHg2-85" value="Kick Off" style="rounded=1;whiteSpace=wrap;html=1;fillColor=#f5f5f5;strokeColor=#666666;fontColor=#333333;" vertex="1" parent="1">
          <mxGeometry x="440" y="168" width="41" height="30" as="geometry" />
        </mxCell>
        <mxCell id="KjNn7EMUg0Ba7doTPHg2-86" value="Engineering" style="rounded=1;whiteSpace=wrap;html=1;rotation=-90;fillColor=#d5e8d4;strokeColor=#82b366;gradientColor=#97d077;" vertex="1" parent="1">
          <mxGeometry x="60" y="400" width="120" height="40" as="geometry" />
        </mxCell>
        <mxCell id="KjNn7EMUg0Ba7doTPHg2-87" value="IT" style="rounded=1;whiteSpace=wrap;html=1;rotation=-90;fillColor=#fff2cc;strokeColor=#d6b656;gradientColor=#ffd966;" vertex="1" parent="1">
          <mxGeometry x="60" y="520" width="120" height="40" as="geometry" />
        </mxCell>
        <mxCell id="KjNn7EMUg0Ba7doTPHg2-88" value="" style="rounded=0;whiteSpace=wrap;html=1;fillColor=#fff2cc;strokeColor=#d6b656;" vertex="1" parent="1">
          <mxGeometry x="140" y="480" width="1300" height="120" as="geometry" />
        </mxCell>
        <mxCell id="KjNn7EMUg0Ba7doTPHg2-89" value="Procurement" style="rounded=1;whiteSpace=wrap;html=1;rotation=-90;fillColor=#f5f5f5;strokeColor=#666666;gradientColor=#b3b3b3;" vertex="1" parent="1">
          <mxGeometry x="60" y="640" width="120" height="40" as="geometry" />
        </mxCell>
        <mxCell id="KjNn7EMUg0Ba7doTPHg2-90" value="Vendor" style="rounded=1;whiteSpace=wrap;html=1;rotation=-90;fillColor=#000000;strokeColor=#666666;gradientColor=#b3b3b3;fontColor=#FFFFFF;" vertex="1" parent="1">
          <mxGeometry x="59" y="880" width="120" height="40" as="geometry" />
        </mxCell>
        <mxCell id="KjNn7EMUg0Ba7doTPHg2-91" value="Technical Support" style="rounded=1;whiteSpace=wrap;html=1;fillColor=#f5f5f5;strokeColor=#666666;fontColor=#333333;" vertex="1" parent="1">
          <mxGeometry x="378" y="520" width="362" height="20" as="geometry" />
        </mxCell>
        <mxCell id="KjNn7EMUg0Ba7doTPHg2-92" value="" style="endArrow=none;html=1;rounded=0;strokeColor=#FF0000;" edge="1" parent="1">
          <mxGeometry width="50" height="50" relative="1" as="geometry">
            <mxPoint x="460" y="961" as="sourcePoint" />
            <mxPoint x="460" y="60" as="targetPoint" />
          </mxGeometry>
        </mxCell>
        <mxCell id="KjNn7EMUg0Ba7doTPHg2-93" value="Vendor" style="rounded=1;whiteSpace=wrap;html=1;rotation=-90;fillColor=#000000;strokeColor=#666666;gradientColor=#b3b3b3;fontColor=#FFFFFF;" vertex="1" parent="1">
          <mxGeometry x="60" y="880" width="120" height="40" as="geometry" />
        </mxCell>
        <mxCell id="KjNn7EMUg0Ba7doTPHg2-94" value="Legal" style="rounded=1;whiteSpace=wrap;html=1;rotation=-90;fillColor=#ffcd28;strokeColor=#d79b00;gradientColor=#ffa500;" vertex="1" parent="1">
          <mxGeometry x="60" y="760" width="120" height="40" as="geometry" />
        </mxCell>
        <mxCell id="KjNn7EMUg0Ba7doTPHg2-95" value="We are Here now" style="text;html=1;strokeColor=#B20000;fillColor=#e51400;align=center;verticalAlign=middle;whiteSpace=wrap;rounded=0;fontColor=#ffffff;" vertex="1" parent="1">
          <mxGeometry x="463" y="60" width="105" height="14" as="geometry" />
        </mxCell>
        <mxCell id="KjNn7EMUg0Ba7doTPHg2-96" value="Legal Support" style="rounded=1;whiteSpace=wrap;html=1;fillColor=#f5f5f5;strokeColor=#666666;fontColor=#333333;" vertex="1" parent="1">
          <mxGeometry x="380" y="770" width="370" height="20" as="geometry" />
        </mxCell>
      </root>
    </mxGraphModel>
  </diagram>
</mxfile>
